<svg width="25" height="25" viewBox="0 0 25 25" fill="none" xmlns="http://www.w3.org/2000/svg">
<path fill-rule="evenodd" clip-rule="evenodd" d="M12.4929 25C5.60714 25 0 19.3857 0 12.5C0 5.60714 5.60714 0 12.5 0C19.4071 0 25.0071 5.60714 25 12.5143C25 19.4 19.3857 24.9929 12.4929 25ZM19.8143 2.86429C18.8571 2.13571 17.8286 1.55714 16.7 1.17143C16.5429 1.11429 16.2786 1.25 16.1286 1.37143C16.0357 1.44286 15.8143 1.63571 16.1143 1.85C15.9714 1.89286 15.8786 1.92143 15.7929 1.95C15.45 2.05714 15.1071 2.16429 14.7643 2.26429C14.4786 2.35 14.1857 2.43571 13.9 2.52143C13.9 2.49286 13.8857 2.47143 13.8786 2.44286C13.7786 2.55714 13.6929 2.70714 13.5643 2.78571C13.2857 2.95714 13.0571 3.24286 12.6857 3.2C12.5429 3.18571 12.3286 3.13572 12.2929 3.04286C12.2286 2.89286 12.2286 2.67143 12.2929 2.52143C12.4 2.29286 12.5857 2.1 12.7429 1.9C12.9643 1.61429 12.9143 1.29286 12.5929 1.18571C12.3714 1.11429 12.25 1 12.2643 0.735714C11.9929 0.75 11.75 0.764286 11.4929 0.785715C11.4643 0.542858 11.5643 0.471429 11.7786 0.5C12.0286 0.535714 12.2857 0.585714 12.5286 0.435714C12.1214 0.414286 11.7071 0.392857 11.3143 0.464286C10.9714 0.528571 10.65 0.692857 10.3214 0.807143C10.2429 0.828572 10.15 0.821429 10.0714 0.807143C9.77143 0.764286 9.47143 0.735715 9.19286 0.871429C9.19286 0.9 9.19286 0.921429 9.19286 0.942857H9.90714C9.90714 0.942857 9.90714 1.00714 9.91429 1.03571C9.81429 1.05 9.70714 1.07143 9.60714 1.07143C9.13572 1.07143 8.65 0.864286 8.21429 1.25714C8.12143 1.34286 7.91429 1.29286 7.77857 1.35C7.29286 1.57143 6.82143 1.81429 6.34286 2.04286C6.61429 2.16429 6.83571 2.17143 7 1.92857C7.05714 1.84286 7.15 1.78571 7.20714 1.70714C7.32143 1.55 7.42143 1.57143 7.53571 1.70714C7.62857 1.82143 7.74286 1.92143 7.83571 2.02857C7.95714 2.17143 8.05 2.2 8.21429 2.05C8.35 1.92857 8.55 1.87143 8.75 1.77857C8.72143 2.17143 8.57857 2.35714 8.22857 2.40714C7.91429 2.45714 7.61429 2.58571 7.31429 2.68571C7.13571 2.74286 6.96429 2.82857 6.78572 2.88572C6.65714 2.92857 6.51429 2.94286 6.38572 2.97857C6.15714 3.05 6.07143 3.27143 6.10714 3.61429C6.12857 3.84286 6.23571 3.96429 6.47857 3.95C6.74286 3.93572 6.88572 4.08571 6.92857 4.33571C6.94286 4.43571 6.94286 4.53571 6.97143 4.63572C7.02143 4.8 7.12143 4.87857 7.27143 4.74286C7.6 4.44286 7.94286 4.17143 8.18571 3.77143C8.35714 3.48572 8.67857 3.26429 8.97143 3.07857C9.07143 3.01429 9.3 3.16429 9.46429 3.21429C9.5 3.22857 9.53572 3.22857 9.57143 3.22857C9.87857 3.23572 10.0714 3.37857 10.1929 3.67857C10.2929 3.92857 10.3429 4.22857 10.6786 4.33571C10.8071 4.37857 10.7714 4.63571 10.6357 4.69286C10.1643 4.88572 9.72143 5.13571 9.17143 5.1C9 5.08571 8.82143 5.25 8.64286 5.33571C9.07622 5.45 9.28807 5.56193 9.27857 5.67143C9.25 6.07143 9.07857 6.25 8.72143 6.26429C8.7 6.15 8.67857 6.04286 8.66429 5.92857C8.12143 6.02143 8.05714 6.01429 7.75 6.35714C7.5 6.63572 7.22143 6.81429 6.86429 6.91429C6.77143 6.94286 6.69286 7.04286 6.62857 7.12143C6.4 7.40714 6.18571 7.7 5.95 7.97857C5.64286 8.33572 5.31429 8.67143 5.37857 9.2C5.39286 9.31429 5.34286 9.43572 5.32143 9.55714C5.29286 9.56429 5.26429 9.57143 5.22857 9.57857C5.08571 9.33572 4.94286 9.08572 4.79286 8.83572C4.42143 8.87857 3.99286 8.67143 3.60714 8.94286C3.59286 8.95 3.57143 8.94286 3.55714 8.94286C3.21429 8.87857 2.92857 9.03572 2.7 9.23572C2.52143 9.39286 2.32143 9.65714 2.34286 9.86429C2.37143 10.1929 2.56429 10.5143 2.68571 10.8286C3.05714 10.8143 3.36429 10.7571 3.58571 10.4429C3.62857 10.3786 3.76429 10.3786 3.89286 10.3357C3.80714 10.7 3.74286 10.9786 3.66429 11.3143C3.77143 11.3429 3.92143 11.4071 4.05714 11.4C4.26429 11.3929 4.34286 11.5 4.37143 11.6643C4.39286 11.7857 4.37143 11.9214 4.38571 12.05C4.38571 12.2357 4.74286 12.5857 4.9 12.5357C5.15714 12.45 5.37857 12.4571 5.54286 12.6357C5.71429 12.5286 5.85 12.4429 5.95714 12.3786C6.1 12.4571 6.20714 12.5143 6.32143 12.5786C6.35714 12.4714 6.36429 12.3714 6.41429 12.3429C6.52857 12.2786 6.66429 12.2143 6.79286 12.2214C6.92857 12.2214 7.06429 12.35 7.2 12.3571C7.76429 12.3857 8.15 12.8143 8.65714 12.9643C8.82857 13.3214 9.2 13.3357 9.5 13.4571C9.89286 13.6071 9.98572 13.85 9.77857 14.2214C9.74286 14.2857 9.70714 14.35 9.65714 14.4071C9.53572 14.5571 9.59286 14.6929 9.75 14.7286C9.91429 14.7714 10.1 14.75 10.2714 14.7286C10.4286 14.7143 10.5929 14.6214 10.7357 14.6571C11.1214 14.75 11.4786 14.9071 11.8571 15.0214C12.3357 15.1643 12.6429 15.6214 12.5071 16.0857C12.3857 16.5071 12.1857 16.9 12.0286 17.3071C11.9643 17.4786 11.8357 17.65 11.8429 17.8143C11.8571 18.2071 11.6214 18.4857 11.3429 18.5929C10.9929 18.7286 10.7214 18.9429 10.4429 19.1643C10.3429 19.2429 10.2714 19.3786 10.2071 19.4929C10.0214 19.8286 9.85 20.1643 9.66429 20.5C9.64286 20.5429 9.57857 20.5571 9.52857 20.5857C9.37857 20.6571 9.22857 20.7286 9.07857 20.7929C9.27857 21.2357 9.25 21.35 8.87143 21.6643C8.84286 21.6929 8.81429 21.7286 8.8 21.7714C8.73572 21.9357 8.66429 22.1071 8.61429 22.2786C8.58571 22.3786 8.54286 22.5143 8.58572 22.5857C8.82857 23.0071 8.87857 23.4286 8.61429 23.8571C8.6 23.8786 8.60714 23.9071 8.6 23.9286C8.62143 23.9429 8.63572 23.95 8.65 23.9571C8.68572 23.9714 8.71429 23.9857 8.75 24C11.4714 24.85 14.1786 24.7929 16.8429 23.7786C18.6929 23.0714 20.2714 21.95 21.5857 20.4714C21.7 20.3429 21.8 20.2 21.6429 20.0714C21.3714 19.8429 21.3286 19.5286 21.2357 19.2214C21.1071 18.8071 20.9429 18.4 20.7786 17.9929C20.6286 17.6429 20.5143 17.2643 20.7357 16.9357C21.1571 16.3214 20.8357 15.7714 20.5857 15.2643C20.4429 14.9643 20.3071 14.6643 20.2071 14.35C20.1714 14.2286 20.2429 14.0786 20.2143 13.95C20.1857 13.8071 20.1286 13.6357 20.0286 13.5429C19.8857 13.4071 19.6643 13.3571 19.5071 13.2429C19.1929 13.0071 18.9786 13.0071 18.6357 13.2286C18.5071 13.3143 18.3143 13.3071 18.15 13.3357C17.95 13.3714 17.75 13.4071 17.5429 13.4429C17.4143 13.4643 17.2857 13.5143 17.1571 13.5071C16.8143 13.4786 16.65 13.2286 16.5071 12.9429C16.3643 12.65 16.2643 12.3214 16.0643 12.0786C15.8214 11.7857 15.7714 11.5214 15.9071 11.1714C15.9571 11.0357 15.9929 10.8429 15.9286 10.7286C15.8143 10.5286 15.8786 10.3714 15.95 10.2143C15.9929 10.1071 16.1143 10.0286 16.1571 9.92143C16.3357 9.46429 16.6429 9.12143 17.0286 8.83572C17.0857 8.79286 17.1786 8.69286 17.1643 8.64286C17.0929 8.41429 17.2714 8.34286 17.4 8.22857C17.55 8.09286 17.6929 7.95714 17.85 7.8C18.2 7.95714 18.5286 7.93572 18.8143 7.62857C18.85 7.59286 18.9071 7.56429 18.9643 7.56429C19.4143 7.56429 19.8714 7.56429 20.3571 7.56429C20.3571 7.95 20.5071 8.3 21.0143 8.37857C21.0571 8.38572 21.0786 8.50714 21.1286 8.52143C21.3714 8.6 21.6143 8.67143 21.8643 8.70714C21.9143 8.71429 22.0429 8.55714 22.0429 8.47143C22.0429 8.28572 22.1143 8.23572 22.2786 8.27143C22.3929 8.3 22.5071 8.34286 22.6214 8.37143C22.75 8.40714 22.8857 8.42857 23.0143 8.45714C23.2071 8.49286 23.4 8.52143 23.5929 8.55714C23.7071 8.57857 23.8143 8.6 23.9857 8.62857C23.8429 8.26429 23.7357 7.98572 23.6214 7.70714C23.6 7.65714 23.5429 7.57857 23.5 7.57857C23.1357 7.58572 23.1143 7.27143 22.9786 7.05714C23.0714 6.99286 23.1571 6.94286 23.2429 6.88572C23.0643 6.80714 22.9571 6.75714 22.8571 6.76429C22.7143 6.76429 22.5429 6.77857 22.4357 6.85714C22.2929 6.95 22.3929 7.09286 22.45 7.22143C22.4857 7.29286 22.45 7.41429 22.4143 7.49286C22.4 7.52857 22.2857 7.51429 22.2143 7.52143C22.2143 7.43572 22.2 7.34286 22.1929 7.25714C22.1929 7.20714 22.1929 7.10714 22.1929 7.1C21.9 7.05 21.8714 6.83572 21.8429 6.60714C21.8429 6.55714 21.7571 6.51429 21.7071 6.48572C21.4143 6.31429 21.1214 6.15 20.8286 5.99286C20.7857 5.97143 20.7143 6.00714 20.5643 6.02857C20.8571 6.33572 21.1 6.58572 21.3571 6.85714C21.35 6.95714 21.3357 7.10714 21.3214 7.25714C21.2857 6.97143 21.15 6.78572 20.8929 6.66429C20.6929 6.56429 20.4929 6.42857 20.3286 6.27857C20.2 6.16429 20.1214 6.16429 19.9714 6.25C19.8643 6.30714 19.7143 6.27857 19.5857 6.29286C19.4643 6.30714 19.3 6.29286 19.2286 6.37143C19.0286 6.57857 18.8429 6.80714 18.7071 7.05714C18.5 7.45 18.1857 7.62857 17.7643 7.50714C17.6143 7.46429 17.5786 7.37143 17.6714 7.21429C17.75 7.08572 17.7786 6.92143 17.8286 6.77143C17.9286 6.47857 17.6286 6.58572 17.5357 6.47857C17.5143 6.45 17.4857 6.43572 17.4071 6.37143C17.5286 6.32143 17.6071 6.26429 17.6929 6.25714C17.9 6.25714 18.1071 6.28572 18.3214 6.27857C18.4 6.27857 18.5357 6.22143 18.5429 6.17857C18.5571 6.00714 18.5643 5.82143 18.5143 5.66429C18.4929 5.58572 18.35 5.55 18.2643 5.48572C18.2357 5.46429 18.2214 5.42857 18.1786 5.36429C18.7571 5.33572 19.1786 5.00714 19.5786 4.68571C19.85 4.47143 20.1286 4.39286 20.4429 4.37143C20.7643 4.35 21.0857 4.37143 21.4071 4.37143C21.4143 4.33572 21.4286 4.30714 21.4357 4.27143C21.2929 4.17857 21.1 3.97857 21.0143 4.02143C20.7071 4.15714 20.6571 4 20.6214 3.77143C20.5857 3.55 20.4714 3.47857 20.25 3.56429C20.0929 3.62143 19.9 3.71429 19.7929 3.49286C19.6929 3.28571 19.5786 3.06429 19.8143 2.85V2.86429ZM0.721429 9.87143C0.0428573 13.0714 0.514286 16.0714 2.21429 18.8643C3.45714 20.9071 6.45714 23.4429 7.8 23.6C7.81429 23.2286 7.7 22.9214 7.37143 22.6929C7.05714 22.4786 7.01429 22.1429 7.05714 21.7857C7.08571 21.55 7.07143 21.3143 7.05714 21.0714C7.03571 20.6143 6.98572 20.1643 6.97143 19.7071C6.95714 19.3143 7.02857 18.9143 6.95714 18.5286C6.89286 18.1571 6.77857 17.7714 6.43572 17.5286C6.3 17.4286 6.10714 17.3714 6.01429 17.2429C5.69286 16.7929 5.40714 16.3143 5.10714 15.85C5.06429 15.7786 5.04286 15.7 5 15.6286C4.78571 15.2714 4.90714 14.8786 4.86429 14.5C4.86429 14.45 4.95 14.3857 4.98571 14.3214C5.17143 13.9857 5.37143 13.6571 5.53571 13.3071C5.63571 13.1 5.51429 12.8786 5.33571 12.9C4.97143 12.9429 4.67857 12.8071 4.39286 12.6C4.06429 12.3571 3.72143 12.1143 3.4 11.8643C3.27143 11.7643 3.16429 11.6357 3.04286 11.5071C2.97857 11.5071 2.87143 11.5214 2.77143 11.5071C2.14286 11.4214 1.66429 11 1.12143 10.7286C1.07143 10.7071 1.01429 10.5929 1.03571 10.5571C1.20714 10.1929 0.871429 10.0643 0.714286 9.85L0.721429 9.87143Z" fill="white"/>
<path fill-rule="evenodd" clip-rule="evenodd" d="M8.44287 1.54989C8.5643 1.44275 8.69287 1.34275 8.8143 1.2356C8.82859 1.22132 8.85001 1.20703 8.85716 1.20703C9.10716 1.34275 9.38573 1.30703 9.65001 1.3356C9.79287 1.34989 9.92859 1.41417 10.0714 1.45703C10.1357 1.47846 10.2214 1.49275 10.2572 1.54275C10.4072 1.72846 10.7143 1.76417 10.7214 2.09275C10.7214 2.17132 10.8643 2.24275 10.9429 2.32132C10.9429 2.34989 10.9429 2.37846 10.9429 2.40703C10.8429 2.40703 10.7357 2.4356 10.6357 2.40703C10.5143 2.37846 10.3786 2.34275 10.4143 2.51417C10.4929 2.85703 10.3429 2.87846 10.0429 2.76417C10.0929 2.87846 10.1286 2.94275 10.1572 3.00703C9.85716 3.07132 9.49287 2.80703 9.50716 2.52132C9.50716 2.45703 9.64287 2.37846 9.73573 2.34989C9.8643 2.30703 10.0072 2.29275 10.1429 2.27132C10.0572 2.17846 9.9643 2.09275 9.87144 1.99989C9.82859 1.95703 9.79287 1.89989 9.75001 1.84989C9.60716 1.69275 9.45001 1.62846 9.2143 1.67846C8.97859 1.72846 8.7143 1.67846 8.4643 1.67132C8.45716 1.62846 8.45001 1.5856 8.44287 1.54275V1.54989Z" fill="white"/>
<path fill-rule="evenodd" clip-rule="evenodd" d="M18.3359 3.69238C18.4716 3.92095 18.5716 4.09953 18.6787 4.2781C18.7502 4.39238 18.8216 4.50667 18.9002 4.61381C19.0002 4.74238 18.9644 4.94953 18.8144 4.9781C18.6002 5.01381 18.3859 5.0281 18.1216 5.05667C18.2359 4.97095 18.3144 4.92095 18.4073 4.84953C18.243 4.72095 18.143 4.59953 18.3859 4.44953C18.4287 4.4281 18.4216 4.22095 18.3859 4.19238C18.1644 4.05667 18.2859 3.90667 18.3359 3.69238Z" fill="white"/>
<path fill-rule="evenodd" clip-rule="evenodd" d="M4.67139 10.2209C4.97139 9.95665 5.57853 10.1281 6.02139 10.6638C5.53567 10.5066 5.1071 10.3638 4.67139 10.2209Z" fill="white"/>
<path fill-rule="evenodd" clip-rule="evenodd" d="M10.4786 5.06445C10.5643 5.17874 10.65 5.30731 10.75 5.45017C10.6977 5.56445 10.4381 5.58588 9.97144 5.51445C10.1571 5.35017 10.3214 5.20017 10.4786 5.0716V5.06445Z" fill="white"/>
<path fill-rule="evenodd" clip-rule="evenodd" d="M17.6787 4.23601C17.3501 4.52172 17.0215 4.52887 16.6287 4.37172C16.9644 4.16458 17.2787 4.08601 17.6787 4.23601Z" fill="white"/>
<path fill-rule="evenodd" clip-rule="evenodd" d="M7.14277 10.8646C6.87849 10.9075 6.62134 10.9432 6.34277 10.986C6.39277 10.8503 6.43563 10.7575 6.48563 10.6289C6.69277 10.6718 6.9142 10.7075 7.13563 10.7503C7.13563 10.786 7.13563 10.8218 7.14277 10.8646Z" fill="white"/>
<path fill-rule="evenodd" clip-rule="evenodd" d="M19.6143 7.2425C19.6428 6.9925 19.6714 6.74249 19.7071 6.48535C20.05 6.54964 20.0571 6.57107 19.9143 6.79964C19.8643 6.87107 19.8643 6.96392 19.8285 7.04964C19.8 7.12821 19.7714 7.19964 19.7357 7.27107C19.6928 7.25678 19.6571 7.24964 19.6143 7.23535V7.2425Z" fill="white"/>
</svg>
