<svg width="119" height="118" viewBox="0 0 119 118" fill="none" xmlns="http://www.w3.org/2000/svg">
<g filter="url(#filter0_d_2403_874)">
<path d="M88.25 87.25C104.128 71.3718 104.128 45.6282 88.25 29.75C72.3718 13.8718 46.6282 13.8718 30.75 29.75C14.8718 45.6282 14.8718 71.3718 30.75 87.25C46.6282 103.128 72.3718 103.128 88.25 87.25Z" fill="url(#paint0_linear_2403_874)"/>
<path d="M31.446 53.392C32.1813 52.3496 33.0827 51.4432 34.0495 50.8036C35.3488 49.9475 36.8142 49.4943 38.2846 49.4943C39.6191 49.4943 40.9032 49.8619 42.0614 50.5518C43.3103 47.8174 45.1936 45.4254 47.5202 43.5622L46.4878 41.3817C45.9389 41.7997 45.4102 42.2378 44.9016 42.7061L41.1348 36.1848C43.7232 34.0547 46.6842 32.3728 49.9021 31.2498L53.0947 36.7791L55.6176 35.5856C55.7234 35.5352 55.8392 35.51 55.955 35.51C56.2572 35.51 56.5392 35.6863 56.6701 35.9633L57.9744 38.7229L59.0218 32.8763C59.0973 32.4533 59.5002 32.1613 59.9383 32.2368L68.3178 33.7425L69.5868 31.5469C72.7795 32.7505 75.7053 34.4979 78.2433 36.6733L76.0275 40.5105C76.3095 40.294 76.6016 40.0976 76.9088 39.9163C78.0116 39.2717 79.2655 38.9192 80.6353 38.8639C81.0985 38.8437 81.5568 38.8739 82.01 38.9394C76.4707 32.6044 68.2876 28.606 59.1578 28.6211C44.7304 28.6514 32.5539 39.2466 30.0713 52.974C30.731 53.0193 31.2295 53.2762 31.3755 53.3618C31.3957 53.3718 31.4158 53.3819 31.4309 53.397L31.446 53.392Z" fill="white"/>
<path d="M73.9784 42.7154C72.644 41.4967 71.1483 40.4392 69.5319 39.5781L69.0938 42.0154C70.4685 42.8161 71.7325 43.783 72.8655 44.8858C73.1626 44.1053 73.5353 43.3801 73.9784 42.7154Z" fill="white"/>
<path d="M74.0483 70.8881C70.5635 75.0074 65.3566 77.6864 59.3741 77.6159C56.5339 77.626 53.8398 77.0015 51.4277 75.8786C50.4205 76.2915 49.499 76.6943 48.6631 77.0821C50.2241 77.9986 51.9111 78.7187 53.6938 79.2122L49.9069 85.7738C46.689 84.6508 43.7331 82.9588 41.1548 80.8136L41.3159 80.5366C40.8073 80.6726 40.339 80.7381 39.926 80.7381C39.7649 80.7381 39.6138 80.728 39.4678 80.7078V80.7179C44.715 85.5119 51.6644 88.4125 59.3086 88.3874C71.5959 88.5334 81.7882 81.2517 86.5319 71.2104C83.7119 70.9234 80.912 70.7773 78.1776 70.7773C76.7625 70.7773 75.3928 70.8227 74.0533 70.8932L74.0483 70.8881ZM69.642 85.5422L65.8803 79.0259C69.1888 78.0036 72.1246 76.1908 74.5015 73.8441L78.2833 80.3906C75.7604 82.5761 72.8498 84.3386 69.642 85.5422Z" fill="white"/>
<path d="M71.3739 71.0808C71.0013 71.116 70.6336 71.1462 70.266 71.1865C67.3755 73.6691 63.6037 75.1899 59.3888 75.1345C57.863 75.1396 56.3875 74.9331 54.9825 74.5454C53.9653 74.8928 53.0085 75.2504 52.1172 75.6029C54.343 76.5647 56.7954 77.0884 59.3737 77.0834C64.9986 77.1539 69.9186 74.7166 73.2976 70.9297C72.9299 70.9549 72.5674 70.98 72.2098 71.0103C71.6861 71.5441 71.1372 72.0527 70.5531 72.516C70.5027 72.5562 70.4423 72.5764 70.3869 72.5764C70.3063 72.5764 70.2308 72.5411 70.1754 72.4757C70.0847 72.3598 70.0999 72.1886 70.2157 72.098C70.6135 71.7807 70.9962 71.4383 71.3689 71.0808H71.3739ZM59.4241 76.3431H59.3787H59.3233C58.004 76.3431 56.6846 76.1971 55.4106 75.905C55.2645 75.8698 55.1739 75.7288 55.2091 75.5827C55.2444 75.4367 55.3854 75.346 55.5314 75.3813C56.7652 75.6633 58.0392 75.8043 59.3233 75.8043H59.3838H59.4241C59.5701 75.8043 59.691 75.9252 59.691 76.0762C59.691 76.2223 59.5701 76.3431 59.4241 76.3431ZM67.1741 74.636C65.9705 75.2101 64.6965 75.6482 63.3973 75.9352C63.3771 75.9352 63.357 75.9403 63.3368 75.9403C63.216 75.9403 63.1052 75.8547 63.075 75.7288C63.0448 75.5827 63.1354 75.4417 63.2814 75.4115C64.5454 75.1345 65.7741 74.7115 66.9424 74.1526C67.0784 74.0871 67.2345 74.1475 67.3 74.2785C67.3654 74.4144 67.305 74.5705 67.1741 74.636Z" fill="white"/>
<path d="M70.4881 45.1061C70.4276 45.1061 70.3723 45.0859 70.3219 45.0456C69.8234 44.6428 69.2946 44.2701 68.7558 43.9227L68.6299 44.6377C69.9543 45.5089 71.1478 46.5664 72.1751 47.77C72.2506 47.1153 72.3765 46.4708 72.5527 45.8514C72.593 45.7154 72.6333 45.5845 72.6736 45.4485C71.5758 44.3457 70.342 43.3838 68.9975 42.5781L68.8565 43.3536C69.4809 43.7414 70.0852 44.1644 70.6593 44.6226C70.7751 44.7133 70.7953 44.8845 70.6996 45.0003C70.6492 45.0658 70.5686 45.101 70.4881 45.101V45.1061Z" fill="white"/>
<path d="M43.5567 51.6626C43.733 51.8288 43.9042 52 44.0704 52.1863C45.0675 49.744 46.6437 47.5786 48.6227 45.8765L48.3256 45.2521C47.4746 45.9671 46.689 46.7628 45.989 47.6289C45.9336 47.6944 45.8581 47.7297 45.7775 47.7297C45.7171 47.7297 45.6567 47.7095 45.6113 47.6692C45.4955 47.5786 45.4804 47.4074 45.571 47.2915C46.3214 46.365 47.1674 45.5139 48.0889 44.7535L47.7616 44.0586C45.5257 45.8765 43.7179 48.198 42.5244 50.8417C42.7309 50.9827 42.9373 51.1338 43.1337 51.295C43.2244 51.0835 43.3251 50.872 43.4258 50.6655C43.4913 50.5346 43.6524 50.4792 43.7834 50.5446C43.9143 50.6101 43.9747 50.7712 43.9092 50.9022C43.7834 51.154 43.6675 51.4108 43.5567 51.6726V51.6626Z" fill="white"/>
<path d="M71.9335 61.5696C72.6335 60.4416 73.2327 59.8574 73.7363 59.8222C74.0133 59.802 74.2399 59.943 74.4111 60.2452C74.9751 59.7416 75.2521 59.3488 75.2319 59.0719C75.2168 58.8956 75.1262 58.7496 74.96 58.6337C74.7938 58.523 74.6025 58.4726 74.3809 58.4877C73.7615 58.533 73.1068 58.9913 72.4119 59.8524C71.717 60.7135 71.0472 61.902 70.4127 63.4127L70.6192 61.6602C70.7451 60.7185 70.8005 60.1394 70.7854 59.9229C70.7602 59.5704 70.6091 59.4042 70.3321 59.4244C70.0703 59.4445 69.7379 59.5402 69.33 59.7164C69.4257 59.8171 69.4912 59.933 69.5315 60.074C68.9372 61.5142 68.207 62.7177 67.3258 63.6846C66.4445 64.6565 65.5885 65.2155 64.7425 65.3565C63.7706 65.5176 63.1914 65.0291 62.995 63.886C64.0928 63.6997 65.0144 63.2666 65.7697 62.5868C66.5251 61.907 66.8373 61.2121 66.7215 60.5121C66.651 60.084 66.4395 59.7718 66.0971 59.5654C65.7496 59.3639 65.3266 59.3035 64.818 59.3891C63.7806 59.5654 62.9598 60.1092 62.3555 61.0257L62.285 61.0056C62.2598 61.0962 62.2296 61.1869 62.1994 61.2775C61.9627 61.6955 61.7965 62.1336 61.716 62.5918C61.6455 62.758 61.575 62.9242 61.4944 63.1005C61.1318 63.9011 60.8196 64.4651 60.5577 64.7975C60.2959 65.1248 59.9988 65.3363 59.6614 65.427C58.9413 65.6183 57.8938 65.0745 56.5241 63.8004C56.8313 63.2817 57.2593 62.748 57.8082 62.1991C58.3571 61.6502 58.8154 61.3077 59.183 61.1667C58.8204 60.7135 58.5485 60.507 58.3672 60.5574C58.0701 60.638 57.637 61.0509 57.078 61.8063C56.5191 62.5616 56.0306 63.3825 55.6177 64.2738L55.1745 57.4453C54.5652 57.964 54.0062 58.2863 53.4976 58.4222C53.0998 58.528 52.7272 58.4726 52.3747 58.2661C52.3898 58.6287 52.4099 58.8755 52.4452 59.0114C52.5509 59.4143 52.8279 59.5553 53.2761 59.4395C53.5278 59.374 53.8098 59.233 54.1321 59.0114L54.3688 62.8386C54.0163 63.2213 53.6487 63.4832 53.266 63.6242C52.5962 63.8709 51.8711 63.8961 51.1006 63.6997C50.1841 63.0602 49.2575 62.8738 48.3158 63.1307C48.2554 63.3422 48.2554 63.5335 48.3158 63.7148C48.3561 63.8306 48.4568 63.9565 48.6129 64.0875C48.4568 64.1076 48.3209 64.1378 48.1899 64.1831C47.3641 64.4853 46.7598 65.0644 46.3821 65.9255C46.0044 66.7866 45.9742 67.6528 46.2915 68.5189C46.5684 69.2844 47.0317 69.8181 47.6813 70.1253C48.3309 70.4325 49.0259 70.4476 49.7762 70.1757C50.7582 69.8181 51.4682 69.1031 51.9063 68.0355C52.3444 66.9679 52.3696 65.8953 51.9718 64.8176C51.9466 64.7471 51.9114 64.6666 51.866 64.581C52.4552 64.5608 52.9538 64.4752 53.3717 64.3241C53.7544 64.1831 54.1019 63.9666 54.4192 63.6745L54.5904 66.4895C54.6307 67.1593 54.6911 67.6377 54.7616 67.9146C54.8573 68.2772 55.0637 68.4132 55.376 68.3326C55.5774 68.2822 55.8544 68.1362 56.2169 67.9046C56.0709 67.7485 55.9651 67.5571 55.9047 67.3355C55.809 66.978 55.7486 66.5449 55.7184 66.0413L55.6328 64.5961C56.227 65.2356 56.937 65.7593 57.7679 66.1622C58.5988 66.5651 59.2484 66.7061 59.7168 66.5852C60.2858 66.4341 60.8549 65.86 61.4239 64.863C61.5296 64.6817 61.6304 64.4853 61.726 64.2889C61.8721 65.009 62.1692 65.5478 62.6274 65.9104C63.1159 66.2982 63.7101 66.4291 64.4151 66.3082C65.5129 66.1219 66.6006 65.4572 67.6682 64.3141C68.4085 63.5235 69.0128 62.6271 69.4962 61.6351C69.4761 61.8264 69.4509 62.0329 69.4257 62.2545L69.2394 63.7551C69.1538 64.4903 69.1135 64.9486 69.1286 65.1299C69.1538 65.4874 69.3703 65.6485 69.7782 65.6183C69.9394 65.6083 70.1509 65.5277 70.4127 65.3817L70.3976 65.2809C70.3775 64.9788 70.5134 64.4651 70.8156 63.7299C71.1177 62.9947 71.4853 62.2796 71.9184 61.5746L71.9335 61.5696ZM51.0502 67.9247C50.8287 68.7254 50.4006 69.2441 49.7712 69.4707C49.3028 69.6419 48.8597 69.6066 48.4417 69.375C48.0238 69.1434 47.7166 68.7606 47.5202 68.2319C47.2533 67.5017 47.2634 66.7614 47.5454 66.0111C47.8274 65.2608 48.2856 64.7723 48.9201 64.5407C49.046 64.4954 49.2122 64.4601 49.4187 64.4299C49.7561 64.5407 50.0935 64.586 50.4359 64.5659C50.6373 64.8176 50.7934 65.0996 50.9042 65.4018C51.2265 66.2831 51.2718 67.124 51.0502 67.9247ZM63.4332 61.0912C63.7857 60.4466 64.2288 60.079 64.7626 59.9884C65.2108 59.9128 65.4726 60.1243 65.5582 60.6279C65.6539 61.1869 65.4424 61.7257 64.9288 62.2494C64.4151 62.7731 63.7504 63.1256 62.9397 63.3069C62.9145 62.476 63.0756 61.7358 63.4281 61.0912H63.4332Z" fill="white"/>
<path d="M40.5657 72.5038C41.6534 71.7888 42.5901 70.6457 43.431 69.3565C45.8079 65.6653 46.4424 58.7411 43.6224 54.4054C41.4318 51.0818 37.8716 50.3516 35.0012 52.245C33.4602 53.2623 32.0452 55.1909 31.5064 57.1952C31.1891 56.319 30.8618 55.4981 30.5244 54.8535C30.5244 54.8535 29.8949 54.491 29.3511 54.8485C28.6864 55.2866 28.1475 56.7671 28.9381 61.0576C30.0913 67.2767 34.3667 77.3734 33.7624 84.5343C34.7544 84.3983 35.4695 84.1012 36.0134 83.7436C37.4939 82.7667 37.7608 81.2056 37.7457 80.2589C37.6147 77.9626 37.0558 75.339 36.3457 72.6851C37.8363 73.5664 39.2614 73.3599 40.5607 72.5038H40.5657ZM36.4968 71.3305C36.3155 71.0586 35.9781 68.1177 37.6298 65.8164C37.0961 65.8617 36.6932 66.043 36.3357 66.2797C35.6709 66.7178 35.2479 67.3875 35.0415 68.2587C34.2509 65.8768 33.3897 63.1928 32.7855 61.2943C32.6394 58.3131 33.6063 55.3773 35.54 54.1032C37.1414 53.0457 39.2161 53.2371 40.4499 55.1104C43.7634 60.8562 41.5527 65.6552 41.3513 66.2646C40.5455 68.6616 39.2765 70.0162 38.219 70.7162C37.3428 71.2953 36.6076 71.4312 36.5018 71.3305H36.4968Z" fill="white"/>
<path d="M42.2724 78.3416C45.6765 76.8158 62.1434 65.9335 90.1976 69.9017C90.1976 69.9017 62.5564 62.9322 39.9207 77.4251C38.415 78.392 38.8732 79.8624 42.2774 78.3416H42.2724Z" fill="white"/>
<path d="M55.9152 52.9389C60.0848 51.8713 65.75 50.844 72.7698 50.7584C72.7195 50.4311 72.6742 50.1289 72.6389 49.862C69.1089 49.7513 65.2767 49.8721 61.3236 50.3807L55.9102 52.9439L55.9152 52.9389Z" fill="white"/>
<path d="M48.1441 55.3678C48.8944 55.1513 50.3497 54.5872 52.4597 53.9276C52.4144 53.8772 52.3791 53.8168 52.3489 53.7563L51.7195 52.4219C49.8361 52.996 47.9628 53.6758 46.1096 54.4916C44.6996 55.111 45.0118 56.2692 48.1491 55.3728L48.1441 55.3678Z" fill="white"/>
<path d="M88.5814 50.8389C88.526 49.3181 88.2793 47.9232 87.8462 46.6491C87.4131 45.3751 86.839 44.2773 86.129 43.3658C85.419 42.4493 84.5931 41.7544 83.6615 41.2709C82.7248 40.7875 81.7378 40.5659 80.7005 40.6062C79.6178 40.6465 78.6408 40.9184 77.7797 41.422C76.9186 41.9256 76.1834 42.6004 75.5741 43.4413C74.9647 44.2873 74.5065 45.2492 74.1993 46.3369C73.8921 47.4246 73.7562 48.5577 73.8015 49.736C73.8317 50.5317 73.9727 51.3424 74.2195 52.1633C74.4662 52.9891 74.8338 53.7294 75.3173 54.384C75.8007 55.0437 76.3949 55.5725 77.0999 55.9804C77.8049 56.3882 78.6257 56.5746 79.5674 56.5393C80.6501 56.499 81.6925 56.071 82.6896 55.2602C83.6867 54.4495 84.4521 53.2359 84.996 51.6244C84.9808 53.1704 84.8348 54.7063 84.5528 56.2422C84.2708 57.7731 83.873 59.1478 83.3493 60.3615C82.8256 61.5751 82.2112 62.5671 81.5062 63.3275C80.7961 64.0929 80.0106 64.4908 79.1444 64.521C78.4444 64.5462 77.8704 64.4102 77.4272 64.1131C76.979 63.816 76.6417 63.4685 76.41 63.0657C76.6668 62.8642 76.8431 62.6024 76.9438 62.2851C77.0395 61.9679 77.0244 61.6405 76.8884 61.3082C76.7273 60.9053 76.4654 60.6132 76.0928 60.432C75.7251 60.2507 75.3475 60.2305 74.9698 60.3665C74.5871 60.5025 74.3202 60.7643 74.1691 61.1571C74.013 61.5499 74.018 61.9477 74.1792 62.3506C74.4461 62.9901 74.8791 63.3275 75.4834 63.3527C75.846 64.0375 76.3798 64.5814 77.0848 64.9742C77.7898 65.372 78.525 65.5533 79.2955 65.5231C80.4537 65.4778 81.6069 65.1505 82.755 64.5411C83.9032 63.9318 84.9255 63.0203 85.8218 61.8168C86.7182 60.6132 87.4282 59.0924 87.9469 57.2645C88.4706 55.4365 88.6821 53.2913 88.5915 50.8288L88.5814 50.8389ZM84.4722 49.7813C84.2507 50.6475 83.9334 51.4734 83.5155 52.264C83.0975 53.0546 82.5738 53.7344 81.9443 54.3135C81.3148 54.8926 80.5997 55.1948 79.8041 55.225C79.1545 55.2502 78.5905 55.1142 78.1222 54.8171C77.6538 54.52 77.251 54.1121 76.9186 53.5934C76.5863 53.0747 76.3345 52.4805 76.1633 51.8108C75.992 51.141 75.8964 50.4461 75.8661 49.7209C75.841 49.0461 75.8762 48.3713 75.9719 47.6915C76.0676 47.0117 76.2237 46.3721 76.4402 45.7729C76.6568 45.1736 76.9287 44.6398 77.251 44.1665C77.5733 43.6982 77.9459 43.3205 78.3689 43.0385H78.3337C79.0638 42.6004 79.7437 42.3687 80.3731 42.3486C80.9774 42.3284 81.5414 42.4644 82.0702 42.7565C82.5989 43.0485 83.0622 43.4413 83.455 43.9348C83.8478 44.4283 84.16 44.9923 84.3866 45.6369C84.6132 46.2815 84.7442 46.9412 84.7693 47.616C84.7895 48.1951 84.6938 48.9152 84.4722 49.7813Z" fill="#C8911E"/>
<path d="M62.4104 48.7348L62.1184 48.6794L62.2946 49.047C62.3248 49.1074 62.3299 49.1829 62.3047 49.2484C62.2795 49.3139 62.2342 49.3642 62.1687 49.3945L53.1799 53.6497C53.054 53.7101 52.8929 53.6497 52.8324 53.5238L46.7442 40.6574C46.714 40.597 46.709 40.5215 46.7341 40.456C46.7593 40.3905 46.8046 40.3402 46.8701 40.31L55.8589 36.0548C55.8942 36.0396 55.9294 36.0296 55.9697 36.0296C56.0704 36.0296 56.1611 36.09 56.2064 36.1806L57.8279 39.61L57.9034 39.1971L56.428 36.0799C56.3121 35.8382 55.9999 35.7224 55.7582 35.8382L46.7694 40.0934C46.6485 40.1488 46.5579 40.2546 46.5126 40.3805C46.4672 40.5064 46.4723 40.6423 46.5327 40.7682L52.6209 53.6345C52.7015 53.8108 52.8828 53.9216 53.0792 53.9216C53.1547 53.9216 53.2252 53.9065 53.2957 53.8712L62.2845 49.616C62.4054 49.5606 62.496 49.4549 62.5414 49.329C62.5867 49.2031 62.5816 49.0671 62.5212 48.9412L62.4205 48.7297L62.4104 48.7348Z" fill="#C8911E"/>
<path d="M48.7178 41.4359C48.7178 41.4359 48.7329 41.446 48.7379 41.451C48.743 41.4611 48.748 41.4662 48.7531 41.4762C48.7531 41.4863 48.7531 41.4964 48.7531 41.5115C48.7531 41.5266 48.7379 41.5316 48.7228 41.5417L48.602 41.5971L48.6272 41.6525L49.171 41.3957L49.1458 41.3403L49.0854 41.3705C49.0502 41.3856 49.02 41.3957 48.9948 41.3906C48.9696 41.3906 48.9444 41.3755 48.9142 41.3554L48.2293 40.8568L48.3854 40.4086C48.4207 40.3079 48.4559 40.2425 48.4962 40.2274L48.5667 40.1921L48.5416 40.1367L48.0682 40.3633L48.0934 40.4187L48.1437 40.3935C48.1437 40.3935 48.1891 40.3835 48.2092 40.3885C48.2293 40.3935 48.2495 40.4087 48.2596 40.4288C48.2696 40.4489 48.2747 40.4691 48.2747 40.4892C48.2747 40.5094 48.2747 40.5295 48.2646 40.5547L48.0531 41.1741L47.7912 40.6151C47.7912 40.6151 47.7812 40.5849 47.7862 40.5748C47.7862 40.5648 47.8013 40.5547 47.8164 40.5446L47.9373 40.4892L47.9121 40.4338L47.3984 40.6755L47.4236 40.7309L47.5545 40.6705C47.5545 40.6705 47.5848 40.6604 47.5948 40.6655C47.6049 40.6655 47.615 40.6806 47.625 40.6957L48.1286 41.7633C48.1437 41.7935 48.1337 41.8187 48.1034 41.8338L47.9725 41.8942L47.9977 41.9496L48.5113 41.7079L48.4862 41.6525L48.3653 41.7079C48.3351 41.723 48.3099 41.7129 48.2948 41.6827L48.0883 41.2496L48.1639 41.028L48.7178 41.441V41.4359Z" fill="#C8911E"/>
<path d="M49.2817 42.8117C49.4378 42.7613 49.4932 42.6304 49.468 42.5347C49.4428 42.434 49.3824 42.3333 49.2363 42.2729C49.0853 42.2124 48.9191 42.1621 48.8486 42.1268C48.7932 42.1016 48.7529 42.0815 48.7328 42.0765C48.7328 42.0765 48.7177 42.147 48.7026 42.2024C48.6824 42.2829 48.6169 42.439 48.5666 42.5951C48.5162 42.7512 48.5616 42.862 48.622 42.9426C48.6824 43.0232 48.8184 43.0635 48.9543 42.9728C48.9997 42.9426 49.0198 42.9074 49.0349 42.8671C49.0802 43.003 49.0399 43.0987 49.0399 43.0987L49.327 42.9627C49.2464 42.9275 49.191 42.857 49.1608 42.8066C49.1961 42.8217 49.2414 42.8268 49.2917 42.8117H49.2817Z" fill="#C8911E"/>
<path d="M60.8496 48.449L60.7892 48.4389L60.759 48.5296L60.5827 48.3986L60.1748 48.3281L60.6935 48.7058L60.5374 49.154C60.5021 49.2547 60.4669 49.3202 60.4266 49.3353L60.3561 49.3705L60.3813 49.4259L60.8546 49.1993L60.8295 49.1439L60.7791 49.1691C60.7791 49.1691 60.7338 49.1792 60.7136 49.1741C60.6935 49.1691 60.6733 49.154 60.6633 49.1288C60.6532 49.1087 60.6482 49.0885 60.6482 49.0684C60.6482 49.0482 60.6482 49.0281 60.6582 49.0029L60.8496 48.449Z" fill="#C8911E"/>
<path d="M60.9899 49.0753L61.0151 49.1307L61.5237 48.889L61.4985 48.8336L61.3676 48.894C61.3676 48.894 61.3374 48.9041 61.3273 48.899C61.3172 48.899 61.3072 48.8839 61.2971 48.8688L61.1259 48.5012L60.9043 48.4609L61.1309 48.9444C61.1309 48.9444 61.141 48.9746 61.1359 48.9847C61.1359 48.9947 61.1208 49.0048 61.1057 49.0149L60.9849 49.0703L60.9899 49.0753Z" fill="#C8911E"/>
<path d="M56.5792 46.5175L57.0979 43.6169C56.8864 43.4206 56.6245 43.2443 56.2771 43.1033C55.3304 42.7206 54.293 42.3983 53.8247 42.1918C53.4722 42.0357 53.2204 41.9149 53.1096 41.8645L53.0894 41.8242C53.0894 41.8242 53.0894 41.8343 53.0794 41.8544C53.0643 41.8444 53.0542 41.8393 53.0542 41.8393L53.0743 41.8796C53.0492 41.9954 52.9787 42.2674 52.8779 42.64C52.7369 43.1335 52.329 44.1407 52.0269 45.1126C51.7248 46.0895 51.9967 46.7945 52.3794 47.3031C52.7672 47.8117 53.6081 48.0635 54.4793 47.5096C54.7512 47.3333 54.8973 47.0966 54.9728 46.8449C55.2447 47.6909 55.0131 48.3153 55.0131 48.3153L56.69 47.5247C56.69 47.5247 56.6548 47.4894 56.6396 47.4693C56.6094 47.429 56.5843 47.3837 56.5641 47.3333C56.1915 47.0967 55.9145 46.7391 55.7534 46.4873C55.99 46.588 56.267 46.6233 56.5691 46.5226L56.5792 46.5175Z" fill="#C8911E"/>
<path d="M69.6821 34.2657L59.8977 32.5082C59.6207 32.4579 59.3589 32.6442 59.3135 32.9161L56.8007 46.9205C56.7755 47.0515 56.8057 47.1874 56.8813 47.2982C56.9568 47.409 57.0726 47.4845 57.2086 47.5047L66.9931 49.2622C67.0233 49.2672 67.0535 49.2722 67.0837 49.2722C67.3254 49.2722 67.5369 49.096 67.5772 48.8593L70.09 34.8549C70.1152 34.724 70.085 34.588 70.0095 34.4772C69.9339 34.3664 69.8181 34.2909 69.6821 34.2707V34.2657ZM67.3405 48.814C67.3153 48.955 67.1844 49.0507 67.0384 49.0255L57.2539 47.268C57.1834 47.2579 57.128 47.2177 57.0877 47.1623C57.0474 47.1069 57.0323 47.0364 57.0474 46.9659L59.5603 32.9614C59.5804 32.8356 59.6912 32.7449 59.8171 32.7449C59.8322 32.7449 59.8473 32.7449 59.8624 32.7449L69.6469 34.5024C69.7174 34.5125 69.7728 34.5527 69.8131 34.6081C69.8534 34.6635 69.8685 34.734 69.8534 34.8045L67.3405 48.809V48.814Z" fill="#C8911E"/>
<path d="M60.3011 34.8294C60.427 34.8546 60.5529 34.8092 60.6687 34.7035C60.7342 34.6431 60.7896 34.5675 60.8349 34.4668C60.8802 34.3711 60.9155 34.2654 60.9306 34.1596C60.9558 34.0287 60.9558 33.9129 60.9407 33.8071C60.9256 33.7014 60.8853 33.6208 60.8299 33.5553C60.7745 33.4899 60.704 33.4546 60.6234 33.4395C60.5428 33.4244 60.4673 33.4395 60.3968 33.4697C60.3263 33.505 60.2709 33.5553 60.2256 33.6208C60.1803 33.6863 60.1551 33.7517 60.14 33.8222C60.1249 33.8927 60.1299 33.9632 60.145 34.0287C60.1601 34.0942 60.1903 34.1496 60.2357 34.1949C60.286 34.2503 60.3565 34.2855 60.4472 34.3006C60.4925 34.3107 60.5428 34.3006 60.5982 34.2805C60.6536 34.2553 60.6939 34.2251 60.7292 34.1798L60.7443 34.1898L60.7292 34.2755C60.7191 34.3258 60.704 34.3812 60.6788 34.4567C60.6536 34.5272 60.6285 34.5877 60.5932 34.628C60.5529 34.6884 60.5076 34.7236 60.4623 34.7438C60.417 34.7639 60.3666 34.769 60.3213 34.7589C60.2659 34.7488 60.2256 34.7337 60.2055 34.7085C60.1803 34.6884 60.1702 34.6632 60.1752 34.638C60.1752 34.628 60.1803 34.6179 60.1853 34.6078C60.1903 34.5977 60.2004 34.5927 60.2155 34.5877C60.2306 34.5826 60.2457 34.5726 60.2608 34.5625C60.281 34.5474 60.2911 34.5272 60.2961 34.5071C60.2961 34.492 60.2961 34.4819 60.2961 34.4769C60.2961 34.4668 60.2961 34.4618 60.286 34.4467C60.2709 34.4215 60.2508 34.4064 60.2206 34.4013C60.1903 34.3963 60.1601 34.4013 60.135 34.4165C60.0997 34.4416 60.0745 34.4718 60.0645 34.5172C60.0645 34.5373 60.0645 34.5675 60.0645 34.5977C60.0645 34.628 60.0796 34.6582 60.0947 34.6833C60.14 34.7538 60.2105 34.7992 60.3011 34.8193V34.8294ZM60.6939 34.1042C60.6637 34.1546 60.6234 34.1949 60.5831 34.215C60.5428 34.2402 60.4975 34.2452 60.4522 34.2402C60.3767 34.2251 60.3313 34.1848 60.3162 34.1093C60.2961 34.0337 60.2961 33.9431 60.3162 33.8424C60.3313 33.7467 60.3666 33.6611 60.417 33.5956C60.4673 33.5251 60.5328 33.4999 60.6083 33.5151C60.6839 33.5302 60.7342 33.5755 60.7594 33.651C60.7795 33.7266 60.7795 33.8172 60.7594 33.928C60.7443 33.9985 60.7241 34.064 60.6939 34.1143V34.1042Z" fill="#C8911E"/>
<path d="M60.668 35.852C60.7838 35.7261 60.7989 35.4391 60.5471 35.3837C60.3558 35.3434 60.2853 35.4844 60.2651 35.5498C60.2651 35.4793 60.25 35.3232 60.0587 35.293C59.8069 35.2527 59.7213 35.5297 59.7868 35.6908C59.8472 35.847 59.8875 35.9023 59.958 36.0081C60.0234 36.1088 60.109 36.2246 60.1342 36.2901V36.2951C60.1795 36.2448 60.3004 36.1642 60.3961 36.0937C60.5018 36.0182 60.5522 35.9829 60.668 35.857V35.852Z" fill="#C8911E"/>
<path d="M65.5333 38.1597C64.3348 37.9129 63.8916 38.7841 63.7456 39.2172C63.7607 38.764 63.6499 37.7921 62.4413 37.6057C60.85 37.359 60.3213 39.0963 60.7141 40.0934C61.1069 41.0905 61.3435 41.4279 61.7917 42.0976C62.2147 42.7321 62.7284 43.4523 62.8946 43.8652C62.8946 43.8652 62.8946 43.9105 62.9046 43.9004C62.9046 43.9155 62.9298 43.8702 62.9298 43.8702C63.2269 43.5379 63.9571 43.0444 64.5765 42.5962C65.2311 42.1228 65.5685 41.8861 66.2836 41.0905C66.9987 40.2898 67.1095 38.4769 65.5283 38.1546L65.5333 38.1597Z" fill="#C8911E"/>
<path d="M66.6 46.7902C66.4741 46.77 66.3483 46.8103 66.2324 46.9161C66.167 46.9765 66.1116 47.052 66.0663 47.1527C66.0209 47.2484 65.9857 47.3542 65.9706 47.4599C65.9454 47.5909 65.9454 47.7067 65.9605 47.8124C65.9806 47.9182 66.0159 47.9987 66.0713 48.0642C66.1267 48.1297 66.1972 48.1649 66.2828 48.18C66.3634 48.1951 66.4389 48.18 66.5094 48.1498C66.5799 48.1146 66.6353 48.0642 66.6806 47.9987C66.7259 47.9333 66.7511 47.8678 66.7662 47.7973C66.7763 47.7268 66.7763 47.6563 66.7612 47.5909C66.7461 47.5254 66.7159 47.47 66.6705 47.4247C66.6202 47.3693 66.5497 47.334 66.4641 47.3189C66.4188 47.3089 66.3684 47.3189 66.313 47.3391C66.2576 47.3642 66.2123 47.3945 66.1821 47.4398L66.172 47.4297L66.1871 47.3441C66.1972 47.2937 66.2123 47.2383 66.2375 47.1628C66.2626 47.0923 66.2929 47.0319 66.3231 46.9916C66.3634 46.9312 66.4087 46.8959 66.454 46.8758C66.4993 46.8556 66.5497 46.8506 66.595 46.8607C66.6504 46.8707 66.6907 46.8858 66.7108 46.911C66.736 46.9312 66.7461 46.9563 66.741 46.9815C66.741 46.9916 66.736 47.0017 66.731 47.0117C66.7259 47.0218 66.7159 47.0269 66.7008 47.0319C66.6857 47.0369 66.6705 47.047 66.6605 47.0571C66.6403 47.0722 66.6303 47.0923 66.6252 47.1125C66.6252 47.1276 66.6252 47.1376 66.6252 47.1427C66.6252 47.1527 66.6252 47.1578 66.6353 47.1729C66.6504 47.1981 66.6705 47.2132 66.7008 47.2182C66.731 47.2232 66.7612 47.2182 66.7864 47.2031C66.8216 47.1779 66.8468 47.1477 66.8569 47.1024C66.8569 47.0822 66.8569 47.052 66.8569 47.0218C66.8569 46.9916 66.8418 46.9614 66.8267 46.9362C66.7813 46.8657 66.7108 46.8204 66.6202 46.8002L66.6 46.7902ZM66.2022 47.5204C66.2324 47.47 66.2727 47.4297 66.313 47.4096C66.3533 47.3844 66.3986 47.3794 66.4439 47.3894C66.5144 47.4045 66.5648 47.4448 66.5799 47.5204C66.6 47.5959 66.6 47.6865 66.5799 47.7872C66.5648 47.8829 66.5295 47.9685 66.4792 48.034C66.4288 48.1045 66.3634 48.1297 66.2878 48.1146C66.2073 48.0995 66.1619 48.0541 66.1368 47.9786C66.1166 47.9031 66.1116 47.8124 66.1368 47.7016C66.1519 47.6311 66.172 47.5707 66.2022 47.5153V47.5204Z" fill="#C8911E"/>
<path d="M66.9476 45.6113C66.8821 45.5105 66.7965 45.3947 66.7714 45.3293V45.3242C66.726 45.3746 66.6052 45.4551 66.5095 45.5256C66.4038 45.6012 66.3534 45.6364 66.2376 45.7674C66.1217 45.8933 66.1066 46.1803 66.3584 46.2357C66.5498 46.276 66.6203 46.135 66.6404 46.0695C66.6404 46.14 66.6555 46.2961 66.8469 46.3263C67.0987 46.3666 67.1843 46.0897 67.1188 45.9285C67.0584 45.7724 67.0181 45.717 66.9476 45.6113Z" fill="#C8911E"/>
</g>
<defs>
<filter id="filter0_d_2403_874" x="0.841309" y="-0.158203" width="117.317" height="117.316" filterUnits="userSpaceOnUse" color-interpolation-filters="sRGB">
<feFlood flood-opacity="0" result="BackgroundImageFix"/>
<feColorMatrix in="SourceAlpha" type="matrix" values="0 0 0 0 0 0 0 0 0 0 0 0 0 0 0 0 0 0 127 0" result="hardAlpha"/>
<feOffset/>
<feGaussianBlur stdDeviation="9"/>
<feColorMatrix type="matrix" values="0 0 0 0 0.301961 0 0 0 0 0.819608 0 0 0 0 1 0 0 0 0.8 0"/>
<feBlend mode="normal" in2="BackgroundImageFix" result="effect1_dropShadow_2403_874"/>
<feBlend mode="normal" in="SourceGraphic" in2="effect1_dropShadow_2403_874" result="shape"/>
</filter>
<linearGradient id="paint0_linear_2403_874" x1="61.2918" y1="99.119" x2="57.7114" y2="17.8823" gradientUnits="userSpaceOnUse">
<stop stop-color="#00215B"/>
<stop offset="1" stop-color="#002E7C"/>
</linearGradient>
</defs>
</svg>
