<svg width="27" height="12" viewBox="0 0 27 12" fill="none" xmlns="http://www.w3.org/2000/svg">
<path d="M8.18831 12L5.89331 8.685H5.75731H3.36031V12H0.606313V0.0999992H5.75731C6.81131 0.0999992 7.72365 0.275666 8.49431 0.626999C9.27631 0.978333 9.87698 1.477 10.2963 2.123C10.7156 2.769 10.9253 3.534 10.9253 4.418C10.9253 5.302 10.71 6.067 10.2793 6.713C9.85998 7.34767 9.25931 7.835 8.47731 8.175L11.1463 12H8.18831ZM8.13731 4.418C8.13731 3.74933 7.92198 3.23933 7.49131 2.888C7.06065 2.52533 6.43165 2.344 5.60431 2.344H3.36031V6.492H5.60431C6.43165 6.492 7.06065 6.31067 7.49131 5.948C7.92198 5.58533 8.13731 5.07533 8.13731 4.418ZM23.9363 12L23.9193 4.86L20.4173 10.742H19.1763L15.6913 5.013V12H13.1073V0.0999992H15.3853L19.8393 7.495L24.2253 0.0999992H26.4863L26.5203 12H23.9363Z" fill="#265AD4"/>
</svg>
