<svg width="39" height="39" viewBox="0 0 39 39" fill="none" xmlns="http://www.w3.org/2000/svg">
<path d="M29.944 0.950439H9.51393C4.8132 0.950439 0.986328 4.77731 0.986328 9.47804V29.9041C0.986328 34.6048 4.8132 38.4317 9.51393 38.4317H29.944C34.6468 38.4317 38.4736 34.6048 38.4736 29.9041V9.47804C38.4736 4.77731 34.6468 0.950439 29.944 0.950439Z" fill="white"/>
<path d="M30.009 2.40466H9.45232C5.58728 2.40466 2.44141 5.55053 2.44141 9.41357V29.9662C2.44141 33.8312 5.58728 36.9771 9.45232 36.9771H30.009C33.874 36.9771 37.0199 33.8312 37.0199 29.9662V9.41357C37.0199 5.55053 33.874 2.40466 30.009 2.40466Z" fill="#0D60A8"/>
<path d="M16.142 16.714H14.3501C13.8258 16.714 13.1468 17.0856 12.9499 17.5798L13.1307 16.6316H10.941L9.96875 22.0816H12.1604L12.7651 18.6324H15.1235C15.1235 18.6324 14.8201 20.342 14.6876 21.1073C14.553 21.8707 15.0733 22.0575 15.3284 22.0575H16.4754L17.2227 17.8188C17.1605 17.2122 16.7507 16.714 16.142 16.714Z" fill="white"/>
<path d="M9.36098 16.6316L8.95117 18.9699L10.6145 16.6316H9.36098Z" fill="white"/>
<path d="M11.9602 8.09192H4.6299L4.3125 9.89989H6.86978L5.84526 15.7196H8.05299L9.08354 9.89989H11.6408L11.9602 8.09192Z" fill="white"/>
<path d="M10.38 15.7194C9.77331 15.7194 9.36551 15.2232 9.47198 14.6165L10.0345 11.4285C10.1409 10.8218 10.7275 10.3236 11.3322 10.3236H14.926C15.5327 10.3236 15.9425 10.8218 15.832 11.4285L15.2716 14.6165C15.1631 15.2232 14.5785 15.7194 13.9738 15.7194H10.38ZM13.4756 13.9335L13.797 12.1115H11.8324L11.511 13.9335H13.4756Z" fill="white"/>
<path d="M24.8391 13.9335L25.1625 12.1115H28.0071L28.3204 10.3236H24.6623C24.0536 10.3236 23.469 10.8218 23.3626 11.4285L22.8001 14.6165C22.6936 15.2232 23.1014 15.7194 23.7101 15.7194H27.2698L27.5832 13.9335H24.8391Z" fill="white"/>
<path d="M20.3654 13.9335H17.9567L18.5915 10.3236H16.6731L15.9198 14.6165C15.8113 15.2232 16.2211 15.7194 16.8278 15.7194H18.698C19.3047 15.7194 19.8029 15.3598 20.1926 14.8897C20.1926 14.8897 20.4096 15.5165 20.7149 15.6551C21.0263 15.7977 21.9604 15.7636 21.9604 15.7636L22.9226 10.3236H21.0022L20.3654 13.9335Z" fill="white"/>
<path d="M34.2049 10.352H32.415C31.8887 10.352 31.3784 10.7256 31.1836 11.2198L31.6978 8.28687H29.6809L28.3691 15.7176H30.3901L30.9967 12.2704H33.1864C33.1864 12.2704 32.8851 13.9759 32.7505 14.7453C32.6159 15.5067 33.1362 15.6955 33.3893 15.6955H34.3676L35.1149 11.4568C35.2214 10.8482 34.8136 10.352 34.2049 10.352Z" fill="white"/>
<path d="M31.2669 21.8929L31.8435 18.6405H28.6012L28.0266 21.8929H31.2669ZM27.0081 23.8977C26.1925 23.8977 25.6401 23.2227 25.7847 22.4091L26.5401 18.1243C26.6827 17.3066 27.4722 16.6377 28.2898 16.6377H32.8599C33.6755 16.6377 34.228 17.3066 34.0853 18.1243L33.33 22.4091C33.1854 23.2227 32.3959 23.8977 31.5803 23.8977H27.0081Z" fill="white"/>
<path d="M22.5737 21.8929H19.3314L19.9059 18.6405H25.1631L25.5086 16.6377H19.5945C18.7749 16.6377 17.9915 17.3066 17.8468 18.1243L17.0915 22.4091C16.9469 23.2227 17.4953 23.8977 18.3129 23.8977H22.8871C23.7047 23.8977 24.4921 23.2227 24.6348 22.4091L25.0968 19.7795H22.9433L22.5737 21.8929Z" fill="white"/>
<path d="M19.3398 27.3105L17.2345 31.6497H15.8986L15.7419 29.0261L14.4643 31.6497H13.1224L12.8652 27.3105H13.8154L13.9822 30.7156L15.6194 27.3105H16.5856L16.7524 30.7156L18.3896 27.3105H19.3398Z" fill="#F8D704"/>
<path d="M23.3129 31.6497H22.3848L23.3068 27.3126H24.2349L23.3129 31.6497Z" fill="#F8D704"/>
<path d="M24.8403 31.6497H23.9082L24.8303 27.3126H25.7584L24.8403 31.6497Z" fill="#F8D704"/>
<path d="M31.2554 31.6497H30.5081C30.1646 31.6497 29.9215 31.6176 29.7849 31.5493C29.6483 31.481 29.582 31.3464 29.582 31.1375C29.582 31.023 29.6001 30.8864 29.6343 30.7297L30.3595 27.3126H31.2876L31.0545 28.3914H31.9505L31.7777 29.1748H30.8938L30.6307 30.4123C30.6065 30.5368 30.5925 30.6212 30.5925 30.6614C30.5925 30.7478 30.6206 30.804 30.6789 30.8261C30.7371 30.8542 30.8536 30.8663 31.0304 30.8663H31.4221L31.2554 31.6497Z" fill="#F8D704"/>
<path d="M11.4721 29.629H9.82083C9.83891 29.5285 9.86301 29.4482 9.89114 29.3859C9.91926 29.3277 9.95542 29.2814 9.99761 29.2473C10.0398 29.2131 10.096 29.1931 10.1623 29.183C10.2306 29.175 10.315 29.169 10.4154 29.169H11.1547C11.3978 29.169 11.5183 29.2433 11.5183 29.3939C11.5183 29.41 11.5022 29.4884 11.4721 29.629ZM12.2877 28.4879C12.1511 28.4196 11.91 28.3855 11.5625 28.3855H10.2347C9.85297 28.3855 9.56169 28.4538 9.36281 28.5984C9.16393 28.7411 9.02934 28.9801 8.95903 29.3116L8.66573 30.7238C8.64364 30.8102 8.62757 30.8845 8.61953 30.9508C8.60949 31.0191 8.60547 31.0814 8.60547 31.1376C8.60547 31.2401 8.61953 31.3204 8.65167 31.3827C8.6798 31.447 8.73002 31.4972 8.80033 31.5354C8.87265 31.5776 8.96706 31.6057 9.08759 31.6198C9.21013 31.6378 9.35879 31.6419 9.5416 31.6419H11.7975L11.9623 30.8664H10.0599C9.8831 30.8664 9.76659 30.8524 9.71034 30.8243C9.65208 30.7961 9.62195 30.7419 9.62195 30.6555C9.62195 30.5932 9.634 30.5149 9.65208 30.4124L9.65409 30.4104H10.0478V30.4124H12.2053L12.4384 29.3116C12.4725 29.1509 12.4906 29.0143 12.4906 28.8978C12.4906 28.6949 12.4223 28.5603 12.2877 28.4879Z" fill="#F8D704"/>
<path d="M19.5932 30.8663C19.4586 30.8663 19.3903 30.808 19.3903 30.6915C19.3903 30.6212 19.4184 30.5589 19.4747 30.4986C19.5289 30.4424 19.6012 30.4123 19.6936 30.4123H20.6961L20.6981 30.4103H21.0858L20.9894 30.8663H19.5932ZM22.2549 28.6465C22.2228 28.5822 22.1686 28.53 22.0962 28.4938C22.0239 28.4536 21.9275 28.4275 21.809 28.4135C21.6925 28.3974 21.5458 28.3914 21.369 28.3914H19.1191L18.9524 29.1748H20.8548C21.0295 29.1748 21.1481 29.1889 21.2063 29.213C21.2626 29.2391 21.2907 29.2933 21.2907 29.3797C21.2907 29.4199 21.2806 29.5023 21.2545 29.6288H19.784C19.5671 29.6288 19.3883 29.6409 19.2457 29.663C19.101 29.6851 18.9805 29.7293 18.8841 29.7955C18.7897 29.8598 18.7133 29.9522 18.6591 30.0728C18.6028 30.1953 18.5526 30.354 18.5084 30.5489L18.4703 30.7297C18.4361 30.8864 18.416 31.021 18.416 31.1375C18.416 31.2419 18.4341 31.3303 18.4662 31.3946C18.5004 31.4589 18.5526 31.5111 18.6249 31.5493C18.6973 31.5875 18.7937 31.6136 18.9102 31.6256C19.0287 31.6417 19.1774 31.6497 19.3542 31.6497H21.7527L22.2509 29.3114C22.2851 29.1547 22.3032 29.0201 22.3032 28.9056C22.3032 28.7992 22.2871 28.7148 22.2549 28.6465Z" fill="#F8D704"/>
<path d="M28.4252 29.629H26.7719C26.792 29.5285 26.8161 29.4482 26.8443 29.3859C26.8704 29.3277 26.9065 29.2814 26.9487 29.2473C26.9929 29.2131 27.0472 29.1931 27.1155 29.183C27.1818 29.175 27.2681 29.169 27.3686 29.169H28.1078C28.3489 29.169 28.4714 29.2433 28.4714 29.3939C28.4714 29.41 28.4554 29.4884 28.4252 29.629ZM29.2408 28.4879C29.1042 28.4196 28.8632 28.3855 28.5156 28.3855H27.1878C26.8041 28.3855 26.5148 28.4538 26.3159 28.5984C26.1171 28.7411 25.9825 28.9801 25.9122 29.3116L25.6169 30.7238C25.5968 30.8102 25.5807 30.8845 25.5706 30.9508C25.5626 31.0191 25.5586 31.0814 25.5586 31.1376C25.5586 31.2401 25.5706 31.3204 25.6028 31.3827C25.6329 31.447 25.6831 31.4972 25.7535 31.5354C25.8238 31.5776 25.9202 31.6057 26.0407 31.6198C26.1613 31.6378 26.3119 31.6419 26.4927 31.6419H28.7507L28.9154 30.8664H27.013C26.8382 30.8664 26.7217 30.8524 26.6615 30.8243C26.6052 30.7961 26.5771 30.7419 26.5771 30.6555C26.5771 30.5932 26.5871 30.5149 26.6072 30.4124V30.4104H26.9969V30.4124H29.1565L29.3915 29.3116C29.4277 29.1509 29.4457 29.0143 29.4457 28.8978C29.4457 28.6949 29.3754 28.5603 29.2408 28.4879Z" fill="#F8D704"/>
</svg>
